<?xml version="1.0" encoding="UTF-8" standalone="no"?>
<svg width="456" height="456" viewBox="0 0 456 456" version="1.1" xmlns="http://www.w3.org/2000/svg">
    <defs>
        <linearGradient id="appBg" x1="12%" y1="10%" x2="88%" y2="92%">
            <stop offset="0%" stop-color="#1D4ED8" />
            <stop offset="55%" stop-color="#4338CA" />
            <stop offset="100%" stop-color="#312E81" />
        </linearGradient>
        <linearGradient id="bubbleFill" x1="20%" y1="15%" x2="80%" y2="90%">
            <stop offset="0%" stop-color="#FFFFFF" />
            <stop offset="100%" stop-color="#DBEAFE" />
        </linearGradient>
    </defs>

    <rect x="0" y="0" width="456" height="456" rx="104" fill="url(#appBg)" />
    <circle cx="355" cy="96" r="84" fill="#60A5FA" opacity="0.20" />
    <circle cx="92" cy="372" r="108" fill="#93C5FD" opacity="0.16" />

    <path d="M 119 112
             H 337
             A 42 42 0 0 1 379 154
             V 281
             A 42 42 0 0 1 337 323
             H 211
             L 148 389
             L 168 323
             H 119
             A 42 42 0 0 1 77 281
             V 154
             A 42 42 0 0 1 119 112
             Z"
          fill="url(#bubbleFill)" />

    <g stroke="#1E3A8A" stroke-width="20" stroke-linecap="round" opacity="0.96">
        <line x1="146" y1="175" x2="310" y2="175" />
        <line x1="132" y1="249" x2="296" y2="249" />
        <line x1="198" y1="139" x2="169" y2="286" />
        <line x1="272" y1="139" x2="243" y2="286" />
    </g>

    <g fill="#2563EB">
        <circle cx="188" cy="175" r="18" />
        <circle cx="260" cy="175" r="18" />
        <circle cx="173" cy="249" r="18" />
        <circle cx="245" cy="249" r="18" />
    </g>

    <g fill="#1E3A8A">
        <circle cx="146" cy="175" r="10" />
        <circle cx="310" cy="175" r="10" />
        <circle cx="132" cy="249" r="10" />
        <circle cx="296" cy="249" r="10" />
        <circle cx="198" cy="139" r="10" />
        <circle cx="169" cy="286" r="10" />
        <circle cx="272" cy="139" r="10" />
        <circle cx="243" cy="286" r="10" />
    </g>
</svg>