<?xml version="1.0" encoding="UTF-8" standalone="no"?>
<svg width="456" height="456" viewBox="0 0 456 456" version="1.1" xmlns="http://www.w3.org/2000/svg">
    <defs>
        <linearGradient id="bubbleGrad" x1="0%" y1="0%" x2="100%" y2="100%">
            <stop offset="0%" stop-color="#8B5CF6" />
            <stop offset="100%" stop-color="#3B82F6" />
        </linearGradient>

        <filter id="shadow" x="-10%" y="-10%" width="130%" height="130%">
            <feDropShadow dx="0" dy="10" stdDeviation="12" flood-color="#3B82F6" flood-opacity="0.28" />
        </filter>

        <mask id="meshMask">
            <rect width="456" height="456" fill="white" />
            <circle cx="192" cy="167" r="6" fill="black" />
            <circle cx="264" cy="167" r="6" fill="black" />
            <circle cx="177" cy="239" r="6" fill="black" />
            <circle cx="249" cy="239" r="6" fill="black" />
        </mask>
    </defs>

    <path d="M 109 102
             H 347
             A 36 36 0 0 1 383 138
             V 283
             A 36 36 0 0 1 347 319
             H 201
             L 137 392
             L 164 319
             H 109
             A 36 36 0 0 1 73 283
             V 138
             A 36 36 0 0 1 109 102
             Z"
          fill="url(#bubbleGrad)"
          filter="url(#shadow)" />

    <g mask="url(#meshMask)">
        <g stroke="#ffffff" stroke-width="13" stroke-linecap="round">
           <line x1="149" y1="167" x2="307" y2="167" />
           <line x1="134" y1="239" x2="292" y2="239" />
           <line x1="200" y1="131" x2="171" y2="275" />
           <line x1="272" y1="131" x2="243" y2="275" />
        </g>

        <g fill="#ffffff">
           <circle cx="192" cy="167" r="14" />
           <circle cx="264" cy="167" r="14" />
           <circle cx="177" cy="239" r="14" />
           <circle cx="249" cy="239" r="14" />
        </g>

        <g fill="#ffffff">
           <circle cx="149" cy="167" r="8" />
           <circle cx="307" cy="167" r="8" />
           <circle cx="134" cy="239" r="8" />
           <circle cx="292" cy="239" r="8" />
           <circle cx="200" cy="131" r="8" />
           <circle cx="171" cy="275" r="8" />
           <circle cx="272" cy="131" r="8" />
           <circle cx="243" cy="275" r="8" />
        </g>
    </g>
    <text x="228" y="415" font-family="system-ui, -apple-system, sans-serif" font-weight="850" font-size="70" text-anchor="middle" letter-spacing="-2">
        <tspan fill="#1E293B">Chat</tspan><tspan fill="#3B82F6">Mesh</tspan>
    </text>
</svg>