<?xml version="1.0" encoding="UTF-8" standalone="no"?>
<svg width="456" height="456" viewBox="0 0 456 456" version="1.1" xmlns="http://www.w3.org/2000/svg">
  <!-- ChatMesh splash screen: chat bubble with mesh network -->

  <!-- Chat bubble outline -->
  <path d="M148,68 L348,68 A40,40 0 0,1 388,108 L388,278 A40,40 0 0,1 348,318 L218,318 L138,398 L162,318 L148,318 A40,40 0 0,1 108,278 L108,108 A40,40 0 0,1 148,68 Z"
        fill="#FFFFFF" fill-opacity="0.12" stroke="#FFFFFF" stroke-width="10" stroke-linejoin="round"/>

  <!-- Mesh connections -->
  <line x1="248" y1="128" x2="328" y2="193" stroke="#FFFFFF" stroke-width="5" stroke-linecap="round" opacity="0.7"/>
  <line x1="248" y1="128" x2="248" y2="263" stroke="#FFFFFF" stroke-width="5" stroke-linecap="round" opacity="0.7"/>
  <line x1="248" y1="128" x2="168" y2="193" stroke="#FFFFFF" stroke-width="5" stroke-linecap="round" opacity="0.7"/>
  <line x1="328" y1="193" x2="248" y2="263" stroke="#FFFFFF" stroke-width="5" stroke-linecap="round" opacity="0.7"/>
  <line x1="328" y1="193" x2="168" y2="193" stroke="#FFFFFF" stroke-width="5" stroke-linecap="round" opacity="0.7"/>
  <line x1="248" y1="263" x2="168" y2="193" stroke="#FFFFFF" stroke-width="5" stroke-linecap="round" opacity="0.7"/>

  <!-- Mesh nodes -->
  <circle cx="248" cy="128" r="18" fill="#FFFFFF"/>
  <circle cx="328" cy="193" r="18" fill="#FFFFFF"/>
  <circle cx="248" cy="263" r="18" fill="#FFFFFF"/>
  <circle cx="168" cy="193" r="18" fill="#FFFFFF"/>
</svg>