<?xml version="1.0" encoding="UTF-8" standalone="no"?>
<svg width="456" height="456" viewBox="0 0 456 456" version="1.1" xmlns="http://www.w3.org/2000/svg">
    <path d="M 119 112
             H 337
             A 42 42 0 0 1 379 154
             V 281
             A 42 42 0 0 1 337 323
             H 211
             L 148 389
             L 168 323
             H 119
             A 42 42 0 0 1 77 281
             V 154
             A 42 42 0 0 1 119 112
             Z"
          fill="#FFFFFF" />

    <g stroke="#4F46E5" stroke-width="20" stroke-linecap="round">
        <line x1="146" y1="175" x2="310" y2="175" />
        <line x1="132" y1="249" x2="296" y2="249" />
        <line x1="198" y1="139" x2="169" y2="286" />
        <line x1="272" y1="139" x2="243" y2="286" />
    </g>

    <g fill="#4F46E5">
        <circle cx="188" cy="175" r="18" />
        <circle cx="260" cy="175" r="18" />
        <circle cx="173" cy="249" r="18" />
        <circle cx="245" cy="249" r="18" />
    </g>
</svg>